# xmcd
#
# Track frame offsets:
#	150
#	17219
#	31355
#	48441
#	61781
#	77235
#	92933
#	109395
#	125471
#	143498
#	155502
#	170402
#	188616
#	204987
#	218431
#	236714
#	256473
#	273623
#	290531
#	301263
#
# Disc length: 4156 seconds
#
# Revision: 0
# Processed by: cddbd v1.5.2PL0 Copyright (c) Steve Scherf et al.
# Submitted via: EasyCDDAExtractor 11.5.0.1
#
DISCID=1b103a14
DTITLE=Various Artist - NCT 041
DYEAR=2002
DGENRE=Country
TTITLE0=Faith Hill - Cry
TTITLE1=Toby Keith - Who's Your Daddy?
TTITLE2=The Dixie Chicks - Landslide
TTITLE3=George Strait - She'll Leave You With A Smile
TTITLE4=Terri Clark - I Just Want To Be Mad
TTITLE5=Brooks and Dunn - Every River
TTITLE6=Jennifer Hanson - Beautiful Goodbye
TTITLE7=Lonestar - Unusually Usual
TTITLE8=Brad Paisley - I Wish You'd Stay
TTITLE9=Dean Miller - Love Is A Game
TTITLE10=Jo Dee Messina - Dare To Dream
TTITLE11=Josh Turner - She'll Go On You
TTITLE12=Holly Lamar - These Are The Days
TTITLE13=Trick Pony - On A Mission
TTITLE14=Andy Griggs - Practice Life
TTITLE15=Tift Merritt - Virginia No One Can Warn You
TTITLE16=Jameson Clark - You Da Man
TTITLE17=Little Big Town - Everything Changes
TTITLE18=Elizabeth Cook - Stupid Things
TTITLE19=Deryl Dodd ft. Tim McGraw - Honky Tonk Champagne
EXTD=
EXTT0=
EXTT1=
EXTT2=
EXTT3=
EXTT4=
EXTT5=
EXTT6=
EXTT7=
EXTT8=
EXTT9=
EXTT10=
EXTT11=
EXTT12=
EXTT13=
EXTT14=
EXTT15=
EXTT16=
EXTT17=
EXTT18=
EXTT19=
PLAYORDER=
